<svg width="127" height="78" viewBox="0 0 127 78" fill="none" xmlns="http://www.w3.org/2000/svg">
<path fill-rule="evenodd" clip-rule="evenodd" d="M16.337 26.8507C16.515 24.7603 17.6156 23.1816 19.1591 22.8027L39.3169 17.8547L52.8779 14.526L81.732 7.44337L81.7247 7.53703L107.752 1.14828C110.64 0.439465 113.572 4.08565 113.268 8.00601L109.989 50.206C109.825 52.3198 108.72 53.9223 107.163 54.3045L73.1223 62.6601C72.8764 62.7205 72.6302 62.7493 72.3857 62.749L52.2883 67.6822L34.7061 71.998L18.2481 76.0378C15.3443 76.7506 12.4016 73.0622 12.7365 69.1296L16.337 26.8507ZM56.0934 24.6983C58.4328 24.1241 60.5832 26.1598 60.1379 28.5271L59.7043 30.8324C59.4642 32.1088 58.5002 33.127 57.2389 33.4366L37.0587 38.3901C35.7973 38.6997 34.8334 39.718 34.5933 40.9944L33.2529 48.1204C32.8076 50.4877 34.958 52.5234 37.2973 51.9492L45.605 49.91C46.3437 49.7286 46.9126 49.1392 47.0678 48.3946C47.3642 46.9719 46.0746 45.7271 44.6633 46.0735L41.934 46.7434C40.1804 47.1739 38.5659 45.6535 38.8905 43.8772C39.0668 42.9119 39.7936 42.1401 40.7467 41.9062L53.4429 38.7897C55.7822 38.2155 57.9326 40.2512 57.4874 42.6185L55.3449 54.009C55.1048 55.2854 54.1408 56.3037 52.8795 56.6133L25.3028 63.3823C22.9505 63.9597 20.7942 61.8992 21.2643 59.5231L26.3178 33.9772C26.5677 32.7141 27.5269 31.7104 28.7773 31.4034L56.0934 24.6983ZM100.543 13.8415C102.883 13.2673 105.033 15.303 104.588 17.6702L104.154 19.9755C103.914 21.2519 102.95 22.2702 101.689 22.5798L81.5082 27.5333C80.2469 27.843 79.2829 28.8612 79.0428 30.1376L77.7025 37.2637C77.2572 39.6309 79.4076 41.6666 81.7469 41.0924L90.0546 39.0532C90.7933 38.8718 91.3622 38.2825 91.5173 37.5378C91.8137 36.1152 90.5241 34.8703 89.1128 35.2167L86.3836 35.8867C84.63 36.3171 83.0155 34.7967 83.34 33.0204C83.5164 32.0551 84.2432 31.2833 85.1962 31.0494L97.8927 27.9329C100.232 27.3587 102.382 29.3944 101.937 31.7616L99.7946 43.1521C99.5546 44.4285 98.5906 45.4468 97.3293 45.7564L69.7526 52.5255C67.4002 53.1029 65.244 51.0424 65.7141 48.6662L70.7676 23.1204C71.0175 21.8573 71.9767 20.8535 73.2271 20.5466L100.543 13.8415Z" fill="#F4F4F4"/>
</svg>
